<?xml version="1.0" encoding="UTF-8" standalone="no"?>
<svg
   version="1.0"
   width="301"
   height="332.3335"
   viewBox="0 0 225.75 249.25012"
   preserveAspectRatio="xMidYMid meet"
   id="svg171"
   sodipodi:docname="2.svg"
   inkscape:version="1.1 (c68e22c387, 2021-05-23)"
   xmlns:inkscape="http://www.inkscape.org/namespaces/inkscape"
   xmlns:sodipodi="http://sodipodi.sourceforge.net/DTD/sodipodi-0.dtd"
   xmlns="http://www.w3.org/2000/svg"
   xmlns:svg="http://www.w3.org/2000/svg">
  <defs
     id="defs175" />
  <sodipodi:namedview
     id="namedview173"
     pagecolor="#ffffff"
     bordercolor="#666666"
     borderopacity="1.0"
     inkscape:pageshadow="2"
     inkscape:pageopacity="0.0"
     inkscape:pagecheckerboard="0"
     inkscape:document-units="px"
     showgrid="false"
     units="px"
     inkscape:showpageshadow="false"
     inkscape:zoom="1.4468942"
     inkscape:cx="206.9951"
     inkscape:cy="162.76242"
     inkscape:window-width="1366"
     inkscape:window-height="705"
     inkscape:window-x="-8"
     inkscape:window-y="-8"
     inkscape:window-maximized="1"
     inkscape:current-layer="svg171" />
  <metadata
     id="metadata9">
Created by potrace 1.16, written by Peter Selinger 2001-2019
</metadata>
  <g
     transform="matrix(0.00529781,0,0,-0.00527124,4.6765162,240.99146)"
     fill="#000000"
     stroke="none"
     id="g169"
     style="fill:#800000;stroke-width:18.9234">
    <path
       d="m 19730,44179 c -2588,-97 -5064,-679 -7405,-1740 -327,-148 -956,-462 -1268,-633 C 9633,41026 8364,40116 7151,39006 6748,38638 6078,37951 5699,37520 4440,36084 3397,34480 2607,32765 1597,30570 1008,28228 855,25805 c -30,-480 -38,-840 -32,-1450 6,-583 10,-700 42,-1175 187,-2747 977,-5479 2284,-7903 785,-1455 1720,-2767 2855,-4007 215,-235 916,-936 1146,-1146 1138,-1039 2301,-1889 3595,-2626 610,-347 1348,-714 1987,-987 2013,-860 4170,-1379 6338,-1526 455,-30 616,-36 1165,-42 1259,-13 2374,76 3575,283 3044,526 5927,1771 8405,3633 2883,2164 5112,5068 6453,8406 749,1863 1207,3861 1351,5885 38,533 46,765 46,1415 -1,623 -7,854 -41,1345 -194,2876 -1023,5682 -2422,8191 -2122,3806 -5450,6806 -9448,8518 -2081,890 -4305,1411 -6589,1541 -519,29 -1332,38 -1835,19 z m 1430,-299 c 2800,-109 5439,-782 7910,-2016 2390,-1194 4503,-2867 6221,-4925 949,-1137 1786,-2413 2444,-3729 1164,-2327 1840,-4847 2000,-7450 29,-479 38,-874 32,-1415 -7,-630 -27,-1032 -78,-1575 -270,-2894 -1171,-5653 -2657,-8129 -1400,-2335 -3279,-4351 -5512,-5918 -2347,-1646 -5063,-2757 -7879,-3223 -1086,-179 -2076,-260 -3196,-260 -744,0 -1258,25 -1965,96 -2650,264 -5246,1091 -7570,2412 -1867,1061 -3549,2430 -4975,4047 -1443,1636 -2604,3516 -3420,5535 -750,1859 -1208,3840 -1350,5845 -33,466 -37,579 -42,1201 -7,809 10,1266 72,1954 347,3818 1809,7412 4233,10405 2317,2861 5423,5012 8907,6171 1627,540 3246,851 4980,954 482,29 1365,39 1845,20 z"
       id="path11"
       style="fill:#800000;stroke-width:18.9234" />
    <path
       d="m 20310,43293 c -59,-10 -153,-47 -208,-82 -83,-54 -141,-128 -182,-236 -63,-164 6,-454 127,-530 38,-25 42,-30 27,-36 -11,-4 -491,-40 -1069,-79 -577,-40 -1052,-74 -1053,-75 -2,-2 -1,-46 3,-99 l 7,-95 47,5 c 77,8 1184,84 1187,81 1,-1 18,-235 38,-520 l 36,-519 -22,-28 c -41,-50 -155,-118 -245,-146 -74,-22 -99,-25 -196,-22 -95,3 -120,7 -167,29 -79,37 -125,81 -160,153 -59,120 -39,281 47,376 85,95 241,147 405,135 l 98,-7 -35,81 c -59,138 -37,124 -194,119 -151,-6 -244,-30 -351,-91 -119,-67 -222,-199 -249,-318 -28,-120 -2,-314 56,-422 162,-299 597,-378 964,-176 38,21 69,32 69,26 0,-22 20,-293 26,-345 l 6,-54 118,4 c 65,2 121,5 124,8 3,3 -11,230 -30,504 l -35,499 43,44 c 66,68 213,137 321,153 150,21 287,-19 351,-103 56,-73 71,-123 71,-242 0,-100 -2,-115 -26,-160 -43,-81 -103,-141 -177,-177 -58,-29 -79,-33 -159,-36 l -93,-4 6,-96 c 3,-54 7,-103 10,-109 5,-18 163,-17 242,2 171,40 332,170 408,329 45,93 57,161 52,281 -13,262 -154,448 -403,528 -89,29 -112,32 -215,31 -165,0 -303,-42 -408,-122 -18,-14 -35,-22 -38,-19 -7,6 -38,426 -33,431 2,2 240,20 529,40 289,20 554,39 589,42 l 63,7 -7,80 c -10,117 -3,111 -109,103 -171,-11 -301,-16 -288,-10 8,4 12,28 12,68 0,53 -4,66 -24,85 -44,41 -78,128 -84,213 -4,73 -3,82 27,143 49,99 115,143 242,160 60,9 159,-16 221,-56 148,-95 381,-441 412,-611 l 7,-38 h -191 -190 v -100 -100 h 170 170 v -870 -870 h 128 127 l -2,870 -2,870 h 199 200 v 100 100 h -197 -198 l -48,148 c -84,258 -177,424 -322,567 -91,91 -200,155 -306,180 -59,13 -209,18 -269,8 z"
       id="path13"
       style="fill:#800000;stroke-width:18.9234" />
    <path
       d="m 15150,42504 c -370,-46 -588,-166 -690,-378 -40,-85 -53,-153 -48,-255 4,-72 11,-101 42,-173 32,-72 51,-101 115,-166 49,-51 89,-83 114,-91 20,-7 37,-16 37,-20 0,-5 -53,-25 -117,-46 -65,-20 -128,-41 -140,-46 l -22,-8 26,-83 c 14,-46 27,-85 29,-87 3,-3 75,16 161,42 86,27 159,44 163,40 4,-4 118,-375 255,-823 136,-448 251,-818 254,-821 6,-7 225,51 236,63 4,4 -106,378 -245,833 -139,454 -250,828 -247,831 3,3 85,30 184,61 98,30 180,56 182,58 3,4 -46,175 -52,181 -1,2 -83,-22 -182,-52 -229,-71 -255,-68 -400,41 -112,84 -159,173 -159,301 1,171 128,307 341,366 111,31 424,31 593,0 146,-27 399,-107 560,-178 69,-31 140,-59 158,-64 77,-19 152,28 152,97 0,52 -43,120 -88,139 -262,112 -513,191 -707,224 -70,12 -440,22 -505,14 z"
       id="path15"
       style="fill:#800000;stroke-width:18.9234" />
    <path
       d="m 26335,42273 c -75,-39 -115,-100 -115,-175 0,-64 17,-114 52,-154 43,-49 79,-65 162,-71 68,-5 73,-4 120,28 83,58 113,142 85,244 -14,51 -92,129 -139,138 -56,12 -134,7 -165,-10 z"
       id="path17"
       style="fill:#800000;stroke-width:18.9234" />
    <path
       d="m 16560,41954 c -630,-146 -1147,-267 -1149,-269 -8,-8 33,-177 43,-181 6,-2 175,34 375,81 l 364,84 60,-41 c 76,-51 168,-144 211,-211 131,-204 202,-445 194,-657 -3,-93 -7,-111 -33,-159 -55,-101 -144,-151 -265,-151 -162,0 -290,122 -290,277 0,52 4,66 27,94 27,32 133,89 166,89 9,0 17,3 17,8 0,24 -34,189 -40,196 -10,10 -202,-89 -273,-141 -125,-92 -170,-248 -118,-414 69,-220 274,-362 496,-345 236,18 430,132 510,301 43,90 55,152 55,279 0,305 -121,601 -353,859 -38,43 -68,80 -66,82 9,9 645,152 650,146 4,-3 93,-382 199,-841 106,-459 194,-837 196,-839 7,-8 247,44 250,54 3,6 -83,389 -189,850 -107,462 -194,841 -193,842 1,1 82,20 181,43 99,22 185,42 192,45 8,2 5,29 -11,92 -18,71 -26,88 -42,90 -10,1 -534,-117 -1164,-263 z"
       id="path19"
       style="fill:#800000;stroke-width:18.9234" />
    <path
       d="m 24022,41949 c -12,-51 -20,-94 -18,-96 3,-3 148,-41 323,-84 l 318,-79 95,-98 c 108,-110 155,-190 173,-298 27,-159 -62,-331 -201,-385 -47,-19 -77,-23 -167,-22 -95,0 -123,4 -205,30 -87,28 -201,85 -273,135 -16,11 -31,18 -33,15 -7,-7 -56,-198 -52,-202 2,-1 46,-21 98,-45 52,-23 99,-46 103,-50 5,-4 -2,-45 -14,-91 -25,-94 -29,-265 -9,-354 39,-171 179,-325 365,-399 74,-29 323,-81 427,-89 56,-4 68,-2 72,12 11,38 39,192 35,195 -2,3 -38,0 -79,-6 -66,-10 -85,-8 -160,10 -188,48 -340,153 -402,280 -31,63 -33,72 -33,177 0,62 6,129 13,154 13,41 15,43 45,37 18,-3 75,-8 127,-12 221,-14 420,79 514,239 110,187 99,401 -30,595 -39,59 -50,82 -37,78 10,-3 200,-51 423,-106 222,-56 406,-103 409,-105 5,-6 -150,-628 -159,-638 -4,-4 -114,19 -246,52 -131,33 -239,59 -240,58 -8,-12 -50,-208 -45,-211 3,-2 112,-29 241,-61 129,-32 236,-59 237,-59 1,-1 -45,-186 -101,-413 l -103,-411 125,-36 c 69,-20 127,-35 128,-33 1,1 95,380 209,842 114,462 210,842 212,844 2,3 82,-15 179,-38 96,-24 182,-44 192,-45 13,-1 20,17 33,89 10,49 16,91 14,93 -2,2 -554,141 -1227,308 -673,167 -1230,307 -1238,309 -13,4 -21,-14 -38,-86 z"
       id="path21"
       style="fill:#800000;stroke-width:18.9234" />
    <path
       d="m 12718,41849 c -56,-29 -69,-54 -57,-112 10,-56 39,-102 77,-121 18,-9 84,-15 197,-19 266,-8 436,-51 602,-152 85,-52 284,-201 363,-272 48,-43 51,-44 86,-33 19,7 37,10 40,8 2,-3 -123,-56 -279,-118 -155,-62 -284,-115 -286,-116 -2,-2 9,-34 24,-71 15,-37 31,-78 36,-90 8,-22 10,-22 164,41 137,57 156,62 164,48 5,-10 152,-370 326,-802 174,-432 318,-786 320,-788 5,-6 235,82 235,90 0,4 -144,364 -320,800 -176,435 -320,797 -320,803 0,7 81,45 179,85 l 179,73 -18,46 c -45,114 -53,131 -59,131 -3,0 -71,-27 -150,-59 l -145,-59 -30,43 c -97,134 -299,339 -407,412 -50,33 -297,145 -390,176 -81,27 -285,62 -414,71 -67,4 -86,2 -117,-15 z"
       id="path23"
       style="fill:#800000;stroke-width:18.9234" />
    <path
       d="m 26705,41204 c -20,-47 -35,-87 -33,-88 2,-2 139,-63 304,-136 l 301,-133 64,-86 c 109,-146 146,-247 137,-373 -8,-120 -86,-246 -182,-293 -152,-74 -405,-14 -597,142 -103,84 -120,96 -124,92 -2,-2 -21,-45 -43,-96 l -40,-92 94,-62 c 52,-34 94,-66 94,-72 0,-5 -15,-48 -34,-96 -45,-112 -59,-198 -54,-324 4,-81 10,-115 31,-167 55,-132 162,-243 304,-315 131,-66 416,-157 433,-138 4,5 12,22 18,38 5,17 21,60 35,97 l 26,67 h -82 c -68,0 -95,5 -153,29 -145,59 -294,183 -342,285 -48,103 -49,225 -3,347 33,87 28,84 116,55 149,-50 329,-44 456,16 87,42 139,87 194,169 67,100 88,167 88,270 -1,110 -16,183 -59,276 -20,42 -34,77 -32,79 2,2 135,-52 297,-121 161,-68 294,-124 296,-124 5,0 67,181 63,185 -2,3 -1007,431 -1504,641 l -32,13 z"
       id="path25"
       style="fill:#800000;stroke-width:18.9234" />
    <path
       d="m 12360,40385 c -564,-288 -1029,-526 -1035,-528 -5,-2 9,-43 33,-91 l 43,-87 414,210 c 228,116 418,211 422,211 5,0 36,-56 71,-125 l 62,-125 -82,-41 c -125,-63 -216,-126 -294,-204 -94,-94 -119,-146 -119,-250 0,-71 4,-88 33,-148 52,-106 154,-163 281,-159 47,2 52,0 46,-15 -27,-64 -36,-105 -38,-167 -2,-62 2,-78 28,-125 146,-265 423,-303 808,-110 96,49 180,104 256,167 66,56 195,217 238,296 l 31,60 63,-127 c 35,-70 68,-127 74,-127 9,0 215,96 222,104 2,2 -146,295 -328,652 -182,357 -360,706 -395,776 l -64,128 181,90 180,91 -37,67 c -49,89 -58,102 -64,101 -3,0 -466,-236 -1030,-524 z m 810,-471 262,-515 -18,-56 c -41,-132 -218,-342 -381,-455 -64,-44 -227,-113 -315,-133 -66,-16 -85,-17 -132,-6 -119,27 -164,113 -126,246 11,40 28,65 91,128 86,87 151,123 325,179 l 101,33 -80,87 c -68,74 -82,85 -101,78 -11,-4 -47,-16 -79,-25 -69,-20 -221,-110 -297,-175 -65,-56 -119,-75 -184,-66 -37,6 -52,15 -81,48 -30,36 -35,49 -35,92 0,48 2,52 58,106 69,66 262,177 409,236 57,22 105,43 109,46 3,4 -47,108 -111,233 -65,124 -116,228 -114,229 14,13 425,213 431,210 4,-3 124,-236 268,-520 z"
       id="path27"
       style="fill:#800000;stroke-width:18.9234" />
    <path
       d="m 28664,40308 c -108,-12 -253,-105 -307,-197 l -17,-30 42,-25 c 24,-13 72,-40 108,-60 l 65,-35 40,39 c 45,45 132,80 192,80 78,-1 174,-54 225,-124 53,-74 33,-213 -44,-301 -65,-73 -106,-90 -218,-89 -80,0 -105,5 -162,28 -90,37 -302,159 -359,207 -26,22 -54,39 -63,39 -9,0 -25,-15 -36,-32 -23,-39 -25,-48 -7,-48 7,0 21,-6 31,-13 16,-12 15,-18 -15,-102 -18,-50 -36,-94 -41,-99 -5,-6 -22,-3 -44,7 -19,10 -39,15 -44,12 -16,-10 -50,-182 -50,-253 0,-98 15,-163 60,-257 99,-208 367,-400 641,-460 146,-31 355,-50 429,-39 l 54,9 78,135 c 43,74 78,138 78,142 0,4 -33,-5 -72,-19 -173,-60 -304,-68 -478,-28 -227,51 -444,206 -523,372 -28,59 -32,78 -31,148 1,78 30,185 54,200 6,3 60,-21 122,-54 148,-78 224,-106 352,-127 131,-23 224,-12 321,35 175,86 298,346 251,529 -23,93 -52,140 -130,218 -70,69 -192,143 -286,173 -59,18 -152,27 -216,19 z"
       id="path29"
       style="fill:#800000;stroke-width:18.9234" />
    <path
       d="m 27626,39863 c -20,-49 -36,-93 -36,-99 0,-11 408,-190 415,-182 14,14 92,184 87,189 -8,6 -417,179 -424,179 -3,0 -22,-39 -42,-87 z"
       id="path31"
       style="fill:#800000;stroke-width:18.9234" />
    <path
       d="m 9685,39905 c -55,-8 -116,-20 -137,-29 -79,-34 -103,-117 -45,-160 27,-20 38,-21 230,-18 210,3 306,-6 499,-48 71,-15 124,-37 250,-102 88,-46 174,-95 191,-109 l 32,-26 -77,-50 c -52,-35 -73,-54 -66,-61 7,-7 -11,-22 -56,-47 -88,-49 -108,-39 -27,13 l 63,41 -55,25 c -96,42 -357,98 -487,103 -171,7 -374,-10 -521,-46 -116,-28 -326,-107 -385,-146 -34,-22 -64,-74 -64,-111 0,-38 46,-88 97,-105 31,-10 43,-7 136,35 232,103 380,147 595,176 118,16 330,16 451,0 101,-13 103,-14 82,-31 -11,-9 -21,-20 -21,-24 0,-3 18,-34 41,-68 40,-61 28,-52 -41,31 l -35,42 -807,-607 c -444,-335 -808,-611 -808,-616 0,-11 103,-147 113,-147 4,0 62,41 127,90 66,50 126,93 133,95 7,2 110,-128 247,-311 202,-270 245,-322 305,-368 158,-121 241,-151 395,-143 114,6 189,30 300,97 44,26 80,47 80,45 0,-1 -74,-154 -165,-339 l -164,-337 32,6 c 18,3 79,12 136,19 57,8 107,18 111,23 4,4 85,197 180,428 95,231 176,424 180,429 5,4 61,-62 125,-148 l 117,-156 47,34 c 25,18 73,52 106,75 33,23 60,46 60,51 0,5 -231,315 -513,689 -282,374 -515,687 -518,694 -5,15 288,241 315,243 9,1 76,40 150,88 73,48 137,84 141,79 4,-4 213,-325 465,-713 251,-388 463,-711 470,-718 10,-11 30,-3 115,50 57,35 103,66 104,69 1,3 -210,331 -469,729 -258,398 -471,726 -472,729 -2,5 147,104 320,213 7,4 -10,37 -42,87 l -53,81 -37,-23 c -175,-106 -330,-214 -326,-227 5,-17 -110,-86 -119,-71 -3,4 20,25 51,46 l 57,38 -31,27 c -46,42 -276,181 -401,244 -282,141 -449,175 -707,141 z m 533,-1654 274,-363 -7,-46 c -15,-101 -112,-255 -202,-324 -88,-67 -157,-92 -248,-92 -106,-1 -164,25 -242,107 -69,72 -486,624 -481,637 2,5 140,112 308,238 224,169 308,227 315,218 6,-7 133,-175 283,-375 z"
       id="path33"
       style="fill:#800000;stroke-width:18.9234" />
    <path
       d="m 29567,39883 c -13,-21 -36,-59 -50,-84 l -27,-46 144,-87 145,-86 -445,-741 c -244,-407 -444,-744 -444,-747 0,-4 47,-37 105,-74 l 104,-67 448,745 c 246,409 452,744 456,744 5,0 80,-43 167,-95 87,-52 162,-95 167,-95 4,0 29,36 55,80 l 47,79 -77,47 c -55,34 -601,363 -764,460 -4,3 -18,-12 -31,-33 z"
       id="path35"
       style="fill:#800000;stroke-width:18.9234" />
    <path
       d="m 30391,39303 -54,-77 25,-20 c 14,-12 75,-56 137,-99 73,-51 109,-82 105,-90 -4,-7 -227,-326 -496,-709 -268,-384 -488,-699 -488,-702 0,-7 189,-146 199,-146 5,0 233,320 506,710 321,458 501,707 508,703 7,-4 78,-54 159,-110 80,-57 150,-103 155,-103 4,0 32,35 60,77 l 53,76 -23,16 c -12,8 -194,136 -404,283 -211,147 -384,268 -386,268 -1,0 -27,-35 -56,-77 z"
       id="path37"
       style="fill:#800000;stroke-width:18.9234" />
    <path
       d="m 20030,39073 c -1311,-40 -2568,-244 -3790,-613 -2804,-848 -5291,-2532 -7132,-4831 -1806,-2255 -2891,-4980 -3127,-7849 -39,-469 -46,-647 -46,-1215 0,-523 7,-726 36,-1100 168,-2196 812,-4276 1910,-6172 515,-890 1114,-1709 1826,-2496 197,-217 746,-767 963,-963 2042,-1850 4483,-3059 7164,-3549 1146,-209 2370,-280 3541,-205 3097,199 6002,1362 8385,3356 2419,2024 4122,4795 4825,7849 380,1650 470,3368 265,5055 -305,2502 -1262,4885 -2775,6905 -443,593 -843,1054 -1370,1580 -630,630 -1259,1158 -1980,1660 -982,684 -2065,1253 -3192,1675 -1740,653 -3655,971 -5503,913 z m 950,-303 c 2334,-94 4514,-717 6520,-1863 1961,-1121 3654,-2726 4889,-4634 228,-353 464,-757 640,-1095 l 80,-153 -30,-175 c -208,-1215 -725,-2656 -1394,-3885 -963,-1768 -2272,-3254 -3895,-4420 -577,-415 -1213,-797 -1895,-1138 -228,-114 -271,-133 -277,-119 -4,10 -113,703 -242,1542 -130,839 -337,2178 -460,2975 -124,798 -468,3021 -766,4940 -297,1920 -543,3502 -546,3518 l -6,27 h -624 c -344,0 -624,-4 -624,-9 0,-14 139,-1353 145,-1393 l 5,-38 h -2044 c -1125,0 -2047,4 -2049,8 -2,4 29,315 69,692 40,377 73,697 73,713 l 1,27 h -624 -624 l -6,-32 c -7,-38 -1041,-6717 -1616,-10433 -215,-1391 -393,-2536 -395,-2543 -8,-23 -711,339 -1110,573 -2232,1305 -3989,3175 -5154,5485 -585,1159 -1020,2440 -1206,3553 l -26,157 97,183 c 842,1575 1950,2957 3307,4125 2417,2079 5478,3283 8677,3411 291,12 832,12 1110,1 z m -2760,-4788 c 0,-4 -67,-653 -150,-1442 -82,-789 -303,-2904 -490,-4700 -187,-1796 -471,-4514 -630,-6040 -159,-1526 -474,-4545 -700,-6708 -225,-2163 -410,-3942 -410,-3952 0,-11 -7,-20 -15,-20 -24,0 -361,124 -645,237 -293,117 -613,257 -883,387 -164,78 -177,87 -172,108 3,13 156,995 340,2183 184,1188 492,3177 684,4420 193,1243 517,3336 721,4650 204,1315 665,4296 1026,6625 360,2329 657,4241 659,4248 3,9 79,12 335,12 181,0 330,-4 330,-8 z m 5613,-3139 c 268,-1732 775,-5006 1127,-7278 1475,-9515 1810,-11681 1813,-11705 2,-28 -32,-47 -363,-201 -453,-211 -1321,-555 -1341,-531 -3,4 -160,1485 -348,3292 -188,1807 -484,4642 -657,6300 -977,9373 -1016,9744 -1199,11500 -96,921 -177,1696 -181,1723 l -6,47 h 334 333 z m -1303,1700 c 0,-5 22,-215 49,-468 27,-253 48,-461 47,-463 -2,-1 -981,-1 -2177,0 l -2175,3 48,450 c 26,248 47,458 47,468 1,16 107,17 2081,17 1144,0 2080,-3 2080,-7 z m 130,-1240 c 0,-5 20,-195 44,-423 24,-228 43,-416 42,-418 -2,-1 -1035,-1 -2297,0 l -2295,3 43,400 c 23,220 42,410 42,423 l 1,22 h 2210 c 1216,0 2210,-3 2210,-7 z M 7605,30405 c 78,-368 208,-844 342,-1250 569,-1734 1467,-3335 2633,-4695 303,-353 753,-820 1080,-1120 965,-886 2038,-1618 3242,-2213 299,-148 327,-164 327,-187 0,-14 -17,-133 -38,-265 -33,-214 -40,-240 -55,-237 -75,14 -907,421 -1257,616 -1555,864 -2899,1995 -3993,3361 -919,1146 -1675,2477 -2183,3845 -179,479 -336,993 -428,1400 l -38,165 18,50 c 47,134 307,724 312,708 1,-4 18,-84 38,-178 z m 25819,-37 c 40,-90 110,-252 155,-360 l 82,-197 -31,-138 c -17,-76 -55,-230 -86,-341 -474,-1751 -1414,-3560 -2608,-5017 -490,-598 -1073,-1194 -1656,-1695 -712,-611 -1489,-1145 -2365,-1625 -365,-200 -1152,-576 -1164,-556 -3,5 -24,125 -45,267 -29,188 -37,259 -28,262 41,13 663,329 837,424 980,537 1834,1144 2665,1892 187,168 718,699 886,886 1027,1141 1816,2367 2431,3780 335,768 625,1652 787,2400 20,91 39,176 42,190 7,31 4,36 98,-172 z m -10644,-220 c 1,-7 20,-197 44,-423 24,-225 43,-411 42,-412 -5,-7 -3289,-11 -3976,-5 l -856,7 43,400 c 23,220 42,410 42,423 l 1,22 h 2330 c 1857,0 2330,-3 2330,-12 z M 7100,29138 c 251,-894 640,-1847 1115,-2733 552,-1030 1196,-1944 1989,-2825 168,-187 739,-758 926,-926 820,-738 1673,-1347 2635,-1878 281,-156 858,-442 1132,-562 186,-82 203,-91 202,-114 0,-14 -102,-684 -227,-1490 l -228,-1465 -3087,-3 -3087,-2 v 2275 2275 l -511,728 c -282,400 -516,731 -521,737 -5,6 -199,-181 -508,-490 -447,-447 -499,-496 -504,-474 -11,46 -56,351 -81,543 -54,421 -87,821 -106,1281 -13,308 -7,1078 11,1355 71,1140 242,2133 546,3185 64,221 244,769 250,762 3,-2 27,-83 54,-179 z m 26844,-113 c 374,-1133 600,-2289 681,-3480 72,-1060 30,-2077 -131,-3150 -14,-93 -28,-178 -32,-188 -6,-16 -95,67 -500,468 -271,268 -494,486 -496,484 -2,-2 -236,-334 -520,-737 l -516,-734 v -2274 -2274 h -3085 -3085 l -5,23 c -8,36 -455,2934 -455,2948 0,8 89,53 217,109 257,112 755,357 1008,495 1002,545 1832,1127 2680,1880 197,174 784,755 967,956 1211,1332 2173,2908 2802,4593 138,370 336,982 361,1120 4,21 11,34 15,29 4,-4 46,-125 94,-268 z m -11044,-29 c 1,-6 20,-195 44,-421 24,-225 42,-412 40,-414 -7,-8 -3907,-11 -4474,-4 l -596,8 43,400 c 23,220 42,410 42,421 l 1,22 h 2450 c 1822,0 2450,-3 2450,-12 z m 124,-1185 c 24,-195 96,-934 91,-939 -8,-9 -5321,-9 -5329,-1 -4,3 16,222 44,485 27,263 50,484 50,490 0,9 626,12 2569,12 h 2569 z m 179,-1715 c 27,-257 46,-471 42,-474 -8,-9 -5581,-9 -5590,-1 -5,6 76,827 90,914 l 5,30 2702,-1 h 2703 z m 124,-1181 c 23,-220 42,-410 42,-422 l 1,-23 h -2921 -2922 l 6,48 c 4,26 22,207 42,402 20,195 38,365 40,376 l 5,21 2832,-1 2833,-1 z m 120,-1150 c 23,-220 42,-410 42,-422 l 1,-23 h -3041 -3042 l 6,48 c 4,26 23,207 42,402 20,195 38,365 41,377 l 4,23 2953,-3 2952,-2 z m 121,-1168 c 24,-230 41,-422 37,-425 -8,-9 -6301,-9 -6309,-1 -6,6 68,772 80,826 l 4,23 3072,-3 3073,-2 z m -15785,-449 387,-551 v -2098 c 0,-1155 -2,-2099 -4,-2099 -12,0 -301,530 -434,795 -555,1110 -975,2319 -1208,3473 l -29,142 445,445 c 245,245 447,445 450,445 3,0 179,-249 393,-552 z m 26169,115 c 241,-241 438,-446 438,-455 0,-36 -104,-496 -174,-772 -270,-1055 -661,-2079 -1156,-3026 -129,-247 -309,-572 -326,-589 -2,-2 -4,936 -4,2085 v 2089 l 388,552 c 213,304 389,552 392,552 3,1 202,-196 442,-436 z m -10270,-749 c 20,-192 37,-361 37,-376 l 1,-28 h -3270 c -1951,0 -3270,4 -3270,9 0,18 70,687 75,716 l 5,30 3192,-1 3193,-1 z m 129,-1240 c 31,-297 54,-542 52,-546 -4,-8 -6816,-11 -6824,-3 -4,3 107,1090 110,1090 1,0 1487,-1 3303,-1 l 3303,-1 z m 90,-866 c 0,-7 19,-195 43,-418 24,-223 41,-408 39,-412 -4,-8 -7056,-11 -7064,-3 -4,4 12,174 71,733 l 12,112 h 3449 c 2752,0 3449,-3 3450,-12 z m 119,-1141 c 0,-2 20,-196 45,-432 25,-237 45,-438 45,-447 0,-17 -181,-18 -3660,-18 -2070,0 -3660,4 -3660,9 0,4 20,202 45,439 25,237 45,435 45,441 0,8 999,11 3570,11 1964,0 3570,-1 3570,-3 z m 166,-1597 c 23,-223 44,-424 47,-447 l 5,-43 h -3787 -3787 l 47,448 c 26,246 48,448 48,449 1,1 1662,1 3693,0 l 3692,-2 z m -9596,153 c 1,-36 -743,-4828 -751,-4837 -12,-14 -392,195 -754,414 -1671,1013 -3138,2382 -4262,3976 -102,145 -281,409 -307,452 -6,9 604,12 3033,12 2889,0 3041,-1 3041,-17 z m 17699,-120 c -1294,-1938 -3015,-3514 -5049,-4626 -150,-83 -176,-94 -182,-79 -7,18 -748,4796 -748,4825 0,16 202,17 3035,17 h 3035 z m -8019,-831 c 0,-4 20,-200 45,-437 25,-236 45,-435 45,-442 0,-11 -709,-13 -3910,-13 -2150,0 -3910,3 -3910,6 0,3 20,199 45,436 25,237 45,437 45,444 0,11 638,13 3820,13 2101,0 3820,-3 3820,-7 z m 171,-1642 c 26,-245 46,-446 44,-448 -3,-3 -8067,-3 -8070,0 -1,2 92,886 94,895 1,2 1775,2 3943,0 l 3943,-2 z m 79,-758 c 0,-4 16,-155 35,-337 19,-181 35,-338 35,-347 0,-17 -204,-18 -4140,-18 -2277,0 -4140,4 -4140,8 0,4 16,158 35,342 19,184 35,340 35,347 0,10 776,13 4070,13 2239,0 4070,-3 4070,-8 z m 144,-1379 c 21,-208 40,-388 43,-400 l 5,-23 h -4256 -4256 v 28 c 0,32 69,717 76,750 l 4,22 h 4173 4172 z m 79,-765 c 13,-94 29,-276 25,-293 -2,-13 -33,-27 -113,-51 -1942,-600 -4010,-778 -6035,-519 -797,103 -1524,259 -2362,510 l -128,38 v 31 c 0,17 7,90 15,161 8,72 15,138 15,148 0,16 211,17 4289,17 h 4289 z"
       id="path39"
       style="fill:#800000;stroke-width:18.9234" />
    <path
       d="m 31239,38679 c -53,-59 -60,-72 -48,-83 8,-8 277,-242 599,-521 322,-278 589,-512 594,-520 7,-9 -27,-55 -123,-164 -73,-83 -136,-151 -140,-151 -4,0 -155,128 -335,285 -389,338 -488,403 -649,425 -148,21 -260,-20 -376,-138 -209,-211 -217,-475 -21,-694 66,-74 159,-148 240,-189 62,-33 70,-34 176,-34 107,0 112,1 186,37 91,45 147,103 177,182 11,31 21,60 20,64 0,4 -45,44 -100,90 l -99,82 v -32 c 0,-34 -30,-93 -59,-116 -35,-27 -112,-62 -139,-62 -64,0 -125,32 -194,100 -55,55 -69,76 -83,125 -31,104 -6,195 73,272 30,30 61,48 99,59 91,27 170,5 293,-78 75,-51 635,-541 635,-555 0,-7 -159,-195 -354,-419 l -354,-408 94,-87 c 71,-66 97,-85 105,-76 6,7 264,303 573,659 l 562,648 150,-131 c 85,-75 154,-128 159,-123 29,31 110,139 108,144 -4,9 -1695,1480 -1702,1480 -2,0 -32,-32 -67,-71 z"
       id="path41"
       style="fill:#800000;stroke-width:18.9234" />
    <path
       d="m 6327,35286 c -389,-498 -707,-907 -707,-910 0,-3 32,-31 70,-62 62,-50 72,-55 83,-41 7,9 107,133 222,276 l 210,260 65,7 c 89,9 251,-2 296,-21 49,-20 72,-41 95,-87 27,-53 25,-130 -6,-195 -43,-94 -212,-290 -309,-359 -17,-12 -26,-26 -22,-32 4,-7 43,-39 86,-72 202,-154 392,-216 582,-190 158,22 282,86 415,213 138,133 212,243 281,417 38,99 72,232 72,286 0,13 2,24 5,24 3,0 92,-68 198,-150 105,-83 195,-149 199,-148 4,2 41,44 82,93 l 75,90 -22,21 c -12,12 -310,245 -661,519 -352,274 -650,508 -662,519 l -23,21 119,150 c 66,83 119,155 119,160 0,10 -117,101 -142,111 -8,3 -279,-336 -720,-900 z m 856,-26 365,-285 4,-55 c 10,-173 -32,-339 -123,-487 -65,-105 -230,-276 -305,-315 -163,-87 -362,-75 -493,29 -3,2 22,32 56,66 58,59 140,173 178,246 62,121 75,261 32,354 -33,73 -79,121 -151,161 -72,40 -137,56 -263,65 l -92,6 201,257 c 134,172 205,255 213,250 7,-4 177,-135 378,-292 z"
       id="path43"
       style="fill:#800000;stroke-width:18.9234" />
    <path
       d="m 34575,35389 c -38,-28 -69,-54 -68,-58 1,-5 245,-369 543,-810 297,-441 538,-806 535,-811 -3,-5 -78,-58 -166,-117 -137,-92 -161,-105 -173,-92 -8,8 -141,203 -296,434 -156,231 -286,423 -289,427 -4,4 -48,-20 -98,-53 l -92,-61 60,-89 60,-90 -20,-110 c -28,-159 -87,-246 -204,-304 -142,-69 -288,-46 -393,61 -122,126 -163,306 -108,468 25,73 124,214 201,287 66,62 242,188 313,224 19,10 36,19 38,20 2,2 -27,48 -64,104 l -67,100 -35,-14 c -61,-26 -253,-167 -344,-254 -226,-214 -316,-404 -306,-645 8,-188 77,-337 223,-482 89,-89 195,-150 310,-179 104,-26 219,-14 315,35 58,30 156,115 208,182 46,58 101,167 102,200 0,9 4,19 9,23 5,3 76,-92 156,-211 111,-164 144,-219 133,-225 -118,-72 -897,-607 -896,-614 5,-20 123,-204 131,-205 6,0 964,642 1404,942 l 42,29 111,-166 c 79,-118 114,-163 124,-158 7,4 42,30 79,57 l 66,49 -287,426 c -929,1380 -1168,1731 -1177,1731 -5,-1 -41,-23 -80,-51 z"
       id="path45"
       style="fill:#800000;stroke-width:18.9234" />
    <path
       d="m 5518,34085 c -75,-121 -107,-164 -118,-159 -8,3 -78,21 -155,40 -319,78 -585,67 -795,-33 -108,-52 -221,-167 -278,-283 -50,-102 -64,-161 -64,-260 1,-179 97,-333 259,-413 154,-76 308,-89 393,-32 53,36 86,90 77,126 -7,26 -92,83 -108,73 -5,-3 -44,-5 -85,-5 -115,1 -216,51 -273,137 -44,68 -56,138 -36,216 36,142 131,230 292,272 96,25 346,40 460,27 111,-12 203,-36 203,-53 0,-7 -43,-81 -96,-165 -53,-85 -95,-156 -93,-157 2,-2 40,-26 84,-53 l 81,-51 89,144 89,143 31,-18 c 32,-19 1385,-864 1422,-888 21,-14 24,-10 93,92 39,59 70,108 68,110 -2,1 -333,208 -735,460 -403,252 -733,462 -733,468 0,5 45,82 100,170 56,88 99,161 98,162 -17,14 -150,95 -157,95 -5,0 -56,-74 -113,-165 z"
       id="path47"
       style="fill:#800000;stroke-width:18.9234" />
    <path
       d="m 36655,34134 c -50,-18 -91,-58 -106,-101 -9,-28 -7,-54 7,-131 15,-74 19,-140 18,-282 -1,-207 -10,-262 -68,-400 -41,-97 -199,-393 -212,-397 -5,-1 -49,73 -97,166 -48,93 -94,177 -101,186 -12,17 -18,16 -92,-25 -43,-23 -81,-44 -82,-46 -2,-1 31,-69 73,-149 43,-81 73,-150 69,-155 -5,-4 -350,-189 -766,-410 l -757,-402 56,-112 c 30,-61 56,-112 58,-114 1,-1 346,180 765,403 420,223 768,404 774,402 6,-3 51,-80 99,-171 49,-92 92,-166 96,-164 35,15 161,84 161,88 0,7 -155,304 -176,338 -14,21 -16,21 -39,6 -24,-16 -24,-16 -50,42 -22,50 -24,62 -14,81 7,13 15,23 18,23 3,0 19,-25 36,-55 16,-30 32,-55 36,-55 4,0 31,28 61,63 219,252 277,361 359,682 33,125 34,137 34,320 0,255 -6,295 -54,345 -42,44 -48,45 -106,24 z"
       id="path49"
       style="fill:#800000;stroke-width:18.9234" />
    <path
       d="m 4616,32436 c -273,-513 -496,-937 -496,-943 0,-5 10,-15 23,-22 l 23,-12 -303,-832 c -166,-458 -301,-836 -300,-841 4,-13 159,-68 168,-59 4,4 73,181 153,392 80,211 146,384 148,386 42,32 146,78 218,96 83,21 99,21 178,11 113,-15 194,-54 260,-126 68,-75 87,-137 79,-265 -9,-157 -59,-282 -173,-434 -36,-48 -65,-89 -63,-91 7,-6 180,-66 189,-66 5,0 35,43 66,95 31,52 59,95 63,95 4,0 46,-14 93,-30 105,-37 253,-53 350,-40 187,27 343,148 433,335 54,113 135,387 135,456 0,7 -174,69 -193,69 -4,0 -7,-37 -6,-82 1,-95 -15,-151 -82,-279 -113,-216 -297,-313 -502,-265 -37,9 -85,25 -107,36 l -39,20 14,41 c 72,204 18,458 -127,603 -72,71 -136,106 -258,137 -93,24 -242,29 -315,11 -88,-22 -95,-23 -95,-9 0,7 45,137 100,287 77,209 98,275 88,282 -13,8 -15,8 -60,12 -15,1 -33,7 -40,14 -11,11 -7,11 17,2 24,-9 31,-8 40,4 6,8 162,298 346,645 184,347 337,631 341,631 12,0 388,-202 388,-209 0,-3 -22,-29 -48,-56 -136,-142 -226,-272 -288,-419 -62,-146 -72,-187 -79,-325 -6,-99 -3,-128 14,-196 65,-251 217,-404 481,-486 105,-33 244,-31 352,4 126,40 202,89 317,203 l 103,103 -58,70 c -36,44 -62,67 -68,62 -6,-4 -36,-28 -66,-52 -76,-61 -205,-134 -269,-153 -208,-61 -480,64 -551,252 -34,86 -36,171 -10,293 12,57 30,124 41,148 50,114 174,279 286,380 l 67,60 80,-43 c 284,-153 839,-446 841,-444 10,12 122,214 121,216 -2,1 -347,185 -767,408 -420,223 -766,408 -768,410 -2,1 38,79 88,173 50,94 91,174 91,178 0,5 -38,27 -84,50 l -84,42 z"
       id="path51"
       style="fill:#800000;stroke-width:18.9234" />
    <path
       d="m 36330,31884 c -110,-30 -198,-102 -247,-202 -27,-54 -28,-64 -28,-192 l 1,-135 -66,65 c -111,111 -204,145 -323,120 -133,-27 -245,-116 -287,-228 -28,-73 -37,-228 -20,-343 22,-152 139,-400 263,-554 73,-91 164,-183 199,-201 l 31,-16 -229,-75 c -126,-42 -231,-77 -232,-78 -2,-2 12,-57 31,-122 29,-100 38,-118 53,-115 14,3 1490,480 1631,527 8,3 33,-59 73,-185 l 61,-189 56,20 c 32,11 74,24 94,29 l 36,10 -150,463 c -82,254 -153,466 -157,470 -10,12 -180,-42 -180,-56 0,-7 22,-80 50,-162 27,-82 49,-150 47,-151 -5,-6 -1172,-383 -1174,-380 -2,2 53,27 123,56 88,37 122,55 112,62 -7,5 -34,20 -60,33 -77,40 -240,169 -287,226 -47,58 -103,170 -142,284 -19,57 -24,90 -24,177 0,102 1,108 30,149 17,24 53,57 79,74 40,24 60,30 110,30 69,0 112,-17 174,-71 50,-42 123,-152 174,-261 l 38,-82 73,31 c 39,16 74,32 76,34 2,2 -15,53 -38,113 -57,152 -71,213 -71,303 0,152 63,227 217,259 110,23 209,-25 257,-123 34,-71 42,-133 23,-180 -20,-49 -54,-69 -125,-75 l -60,-6 -6,-45 c -3,-24 -6,-60 -6,-78 0,-30 3,-34 35,-40 93,-17 231,22 278,79 35,42 65,122 72,194 6,63 4,82 -20,155 -59,180 -141,291 -258,348 -103,50 -205,61 -307,34 z"
       id="path53"
       style="fill:#800000;stroke-width:18.9234" />
    <path
       d="m 37368,29988 c -43,-11 -78,-25 -78,-32 0,-6 18,-79 39,-163 l 38,-151 -385,-97 c -343,-85 -396,-101 -476,-143 -208,-107 -316,-283 -316,-511 0,-170 76,-378 181,-494 28,-32 50,-59 48,-61 -2,-2 -93,-25 -202,-52 -110,-27 -203,-52 -209,-55 -7,-4 -6,-36 1,-95 6,-49 11,-108 11,-131 0,-24 2,-43 5,-43 3,0 375,92 827,205 451,113 824,202 828,198 4,-4 27,-87 50,-183 23,-96 46,-179 50,-183 10,-11 180,42 180,56 0,6 -109,449 -242,984 -192,772 -245,973 -258,972 -8,-1 -50,-10 -92,-21 z m 71,-635 c 34,-127 171,-691 171,-704 0,-13 -87,-38 -451,-129 l -451,-113 -32,18 c -78,45 -179,174 -218,280 -34,91 -33,240 3,315 33,70 89,125 159,157 44,21 753,209 797,212 7,1 17,-16 22,-36 z"
       id="path55"
       style="fill:#800000;stroke-width:18.9234" />
    <path
       d="m 3505,29698 c -3,-7 -59,-215 -125,-463 -66,-247 -123,-458 -126,-467 -4,-12 0,-18 11,-18 9,0 19,9 22,20 6,24 2,24 82,5 36,-9 70,-14 76,-11 6,2 27,62 45,133 18,70 34,129 36,131 1,2 1600,-423 1664,-443 12,-4 21,14 38,73 12,42 28,98 36,123 l 14,46 -836,223 c -461,123 -840,226 -843,229 -3,3 16,87 43,185 27,99 47,185 44,191 -2,7 -35,20 -73,29 -37,9 -76,19 -86,22 -9,3 -19,-1 -22,-8 z"
       id="path57"
       style="fill:#800000;stroke-width:18.9234" />
    <path
       d="m 35119,29173 c -134,-290 -178,-500 -166,-798 17,-430 171,-746 401,-825 69,-23 220,-28 308,-9 160,34 283,142 328,286 23,76 25,111 7,127 -8,6 -24,58 -36,116 -13,58 -25,114 -28,126 -4,17 1,22 28,28 29,6 31,8 25,39 -3,17 -33,86 -65,152 -53,108 -67,128 -145,204 -50,49 -90,80 -95,75 -5,-5 -28,-53 -52,-107 l -42,-98 55,-57 c 104,-106 147,-203 149,-340 2,-118 -18,-179 -76,-230 -53,-47 -100,-62 -193,-62 -139,0 -224,77 -281,255 -37,114 -61,273 -61,401 0,231 74,522 167,657 14,20 24,39 22,41 -10,8 -198,106 -204,106 -3,0 -24,-39 -46,-87 z"
       id="path59"
       style="fill:#800000;stroke-width:18.9234" />
    <path
       d="m 3446,28724 c -5,-17 -12,-24 -22,-20 -30,11 -136,37 -140,34 -2,-2 -48,-200 -104,-439 -55,-238 -102,-444 -105,-455 -4,-20 3,-23 87,-43 50,-12 93,-19 95,-17 2,2 21,75 41,162 34,141 40,159 57,157 11,-1 391,-88 844,-192 454,-105 826,-189 828,-187 7,7 66,236 62,241 -2,2 -378,90 -834,195 -457,105 -837,193 -846,196 -14,4 -11,28 28,190 23,103 43,191 43,195 0,21 -28,7 -34,-17 z"
       id="path61"
       style="fill:#800000;stroke-width:18.9234" />
    <path
       d="m 37838,27907 c -52,-7 -68,-13 -68,-26 0,-9 27,-198 59,-420 l 59,-404 -44,-67 c -102,-158 -258,-250 -424,-250 -106,0 -164,22 -230,88 -125,126 -177,331 -145,572 8,63 15,118 15,121 0,3 -46,-2 -102,-11 l -103,-16 -5,-112 c -5,-121 -10,-131 -60,-132 -124,-2 -337,-97 -431,-191 -103,-105 -159,-251 -159,-414 0,-148 84,-505 118,-505 18,0 186,31 190,35 2,1 -11,27 -29,56 -50,86 -60,125 -66,261 -9,208 24,315 131,416 65,61 139,97 235,114 78,13 101,8 101,-24 0,-47 58,-188 103,-251 89,-125 191,-198 322,-232 105,-27 222,-13 365,43 74,29 98,44 193,120 37,30 70,52 73,50 4,-5 94,-556 94,-580 0,-12 59,-7 147,12 47,10 52,14 48,33 -2,12 -63,396 -135,852 -72,457 -132,840 -135,853 -6,25 -11,25 -117,9 z"
       id="path63"
       style="fill:#800000;stroke-width:18.9234" />
    <path
       d="m 3985,27858 c -3,-24 -23,-163 -44,-310 -20,-147 -39,-270 -42,-272 -2,-3 -112,11 -244,30 -251,37 -299,38 -398,9 -121,-35 -214,-135 -259,-278 -19,-59 -23,-95 -23,-202 0,-128 1,-132 34,-200 46,-93 129,-176 196,-198 72,-23 175,-30 225,-17 54,14 107,50 142,94 l 27,34 -53,114 c -51,106 -55,111 -64,87 -6,-15 -28,-41 -49,-58 -35,-30 -42,-32 -92,-27 -63,6 -123,41 -148,88 -12,22 -17,55 -17,98 0,118 65,204 162,217 43,6 501,-55 516,-68 5,-5 5,-42 -2,-91 -15,-114 -2,-294 27,-370 31,-79 104,-158 179,-191 194,-87 409,-51 543,90 92,97 135,243 127,423 -6,117 -32,182 -94,240 -66,60 -153,88 -377,121 -78,11 -143,22 -144,23 -1,1 18,143 43,316 24,173 44,316 44,317 0,2 -71,12 -142,18 l -67,6 z m 220,-902 c 210,-32 295,-86 295,-186 0,-51 -32,-149 -57,-175 -33,-32 -111,-49 -195,-42 -78,7 -133,30 -159,67 -31,43 -44,162 -29,263 14,101 2,95 145,73 z"
       id="path65"
       style="fill:#800000;stroke-width:18.9234" />
    <path
       d="m 36530,22952 c -43,-118 -53,-171 -49,-261 3,-65 10,-89 41,-152 22,-44 63,-104 99,-142 l 61,-67 h -116 c -63,0 -116,-3 -119,-7 -2,-5 -1,-66 1,-138 l 4,-130 231,3 c 312,5 501,-14 1032,-103 110,-18 202,-31 204,-29 3,3 12,63 21,134 l 16,130 -30,5 c -17,2 -80,9 -141,15 -60,6 -267,29 -460,51 -313,35 -356,42 -403,66 -195,97 -254,317 -148,557 l 25,57 -22,8 c -12,5 -66,27 -119,49 l -97,40 z"
       id="path67"
       style="fill:#800000;stroke-width:18.9234" />
    <path
       d="m 4710,22725 c -395,-67 -979,-139 -1529,-190 -151,-14 -275,-26 -277,-27 -4,-5 32,-277 37,-282 3,-3 45,1 94,10 484,79 1238,174 1665,209 266,22 261,21 255,48 -2,12 -9,65 -15,117 -14,118 -20,150 -28,149 -4,-1 -95,-16 -202,-34 z"
       id="path69"
       style="fill:#800000;stroke-width:18.9234" />
    <path
       d="m 4335,21988 c -278,-103 -658,-179 -1240,-249 -55,-6 -102,-13 -103,-15 -6,-5 42,-274 49,-274 4,0 254,45 555,100 302,55 557,100 566,100 26,0 124,-104 168,-179 57,-97 83,-203 78,-315 -10,-201 -99,-277 -390,-330 -166,-31 -507,-80 -697,-101 -80,-8 -147,-17 -149,-20 -6,-5 39,-258 47,-266 3,-3 62,5 131,18 330,62 628,116 750,134 233,34 340,72 427,152 88,80 131,223 119,388 -9,116 -28,187 -78,289 -33,68 -59,102 -135,179 -51,52 -93,96 -93,97 0,1 41,17 90,35 65,23 89,36 86,46 -3,7 -22,65 -42,128 -20,63 -41,114 -47,114 -7,-1 -48,-15 -92,-31 z"
       id="path71"
       style="fill:#800000;stroke-width:18.9234" />
    <path
       d="m 36392,21658 c -12,-72 -21,-133 -19,-135 2,-1 102,-21 223,-44 278,-51 882,-177 910,-188 15,-6 27,-31 43,-86 21,-68 23,-92 19,-204 -8,-204 -60,-321 -165,-371 -42,-21 -62,-24 -158,-23 -176,1 -456,50 -823,144 -106,27 -198,50 -204,52 -7,1 -20,-45 -34,-123 -31,-171 -35,-157 39,-165 132,-15 413,-66 623,-114 277,-63 356,-74 496,-69 133,4 200,29 266,97 157,162 209,536 107,768 -14,31 -25,61 -25,67 0,7 25,11 72,11 h 72 l 17,95 c 27,143 29,137 -38,144 -288,34 -864,148 -1275,251 -53,14 -103,25 -110,25 -9,0 -20,-40 -36,-132 z"
       id="path73"
       style="fill:#800000;stroke-width:18.9234" />
    <path
       d="m 4093,20276 c -331,-63 -579,-267 -648,-532 -42,-160 11,-404 123,-566 39,-56 116,-132 158,-154 19,-10 34,-23 34,-29 0,-6 -21,-18 -47,-28 -83,-30 -81,-23 -44,-138 17,-57 34,-105 36,-107 2,-2 146,44 322,101 586,193 1376,416 1731,488 34,7 62,18 62,23 0,26 -86,266 -95,266 -6,0 -85,-25 -175,-55 -199,-67 -517,-165 -535,-165 -11,0 -11,7 2,38 28,61 22,225 -11,337 -83,278 -231,428 -498,506 -94,27 -309,35 -415,15 z m 379,-260 c 149,-32 257,-115 321,-246 67,-137 84,-272 51,-391 l -16,-57 -277,-91 c -152,-50 -354,-113 -448,-142 l -173,-51 -34,21 c -43,27 -106,95 -139,152 -14,24 -40,87 -57,139 -29,86 -32,103 -28,190 5,124 35,187 133,285 159,159 438,239 667,191 z"
       id="path75"
       style="fill:#800000;stroke-width:18.9234" />
    <path
       d="m 36391,20149 c -148,-19 -283,-82 -376,-175 -171,-171 -249,-537 -154,-726 28,-55 25,-62 -21,-54 -22,3 -57,9 -78,12 l -39,6 -23,-131 c -12,-73 -21,-134 -19,-136 3,-2 47,-11 99,-20 442,-75 1237,-318 1878,-574 56,-23 107,-41 112,-41 13,0 94,260 83,270 -4,4 -87,31 -183,60 -301,90 -541,171 -538,180 2,5 18,19 37,32 71,48 148,196 192,366 23,92 25,234 4,317 -78,303 -413,569 -775,614 -94,12 -107,12 -199,0 z m 275,-299 c 98,-25 241,-95 316,-155 71,-57 140,-148 169,-223 61,-157 -1,-404 -136,-539 -30,-29 -62,-53 -72,-53 -10,0 -77,18 -148,41 -121,37 -585,173 -683,199 -41,10 -46,16 -75,78 -28,60 -31,76 -31,162 0,259 120,436 335,494 80,22 230,20 325,-4 z"
       id="path77"
       style="fill:#800000;stroke-width:18.9234" />
    <path
       d="m 5604,19045 c -113,-56 -125,-203 -25,-288 115,-97 305,-21 305,122 -1,48 -28,114 -61,143 -57,52 -144,61 -219,23 z"
       id="path79"
       style="fill:#800000;stroke-width:18.9234" />
    <path
       d="m 5110,18854 c -222,-134 -631,-311 -1091,-474 -95,-34 -176,-63 -178,-65 -4,-5 87,-237 98,-248 4,-4 56,15 116,43 275,129 828,355 1130,461 83,29 152,54 153,55 4,2 -148,275 -152,273 0,0 -35,-20 -76,-45 z"
       id="path81"
       style="fill:#800000;stroke-width:18.9234" />
    <path
       d="m 35640,18571 c -116,-36 -221,-142 -295,-297 -71,-149 -91,-312 -59,-471 31,-151 54,-144 -167,-49 -107,47 -289,127 -406,179 l -212,95 -9,-27 c -6,-14 -28,-76 -50,-138 l -41,-112 102,-31 c 305,-95 1154,-443 1812,-743 119,-55 120,-55 131,-34 21,40 97,228 93,230 -2,1 -98,40 -214,86 -271,108 -827,341 -842,353 -6,5 -16,37 -22,72 -44,253 48,514 211,597 53,27 145,29 237,5 84,-23 398,-160 690,-302 129,-63 238,-111 242,-107 10,11 99,225 99,239 0,6 -145,71 -322,144 -178,73 -396,166 -485,206 -199,91 -281,114 -388,113 -44,0 -91,-4 -105,-8 z"
       id="path83"
       style="fill:#800000;stroke-width:18.9234" />
    <path
       d="m 5365,18220 c -49,-16 -91,-29 -92,-29 -1,-1 23,-36 53,-78 157,-219 264,-464 264,-606 0,-70 -23,-119 -78,-169 -40,-36 -157,-98 -185,-98 -9,0 -39,48 -77,123 -165,327 -330,504 -514,553 -204,54 -449,-56 -515,-230 -45,-121 -36,-244 29,-382 77,-165 174,-280 300,-355 l 71,-42 -65,-39 -66,-39 56,-110 55,-111 27,18 c 156,103 351,200 633,314 123,50 262,109 308,132 282,139 339,369 181,729 -77,174 -251,450 -283,448 -6,0 -52,-14 -102,-29 z m -577,-553 c 61,-28 136,-99 192,-182 54,-80 175,-314 166,-322 -4,-5 -77,-39 -313,-148 l -73,-34 -60,41 c -79,52 -150,141 -205,253 -51,106 -70,184 -61,249 21,136 207,212 354,143 z"
       id="path85"
       style="fill:#800000;stroke-width:18.9234" />
    <path
       d="m 34267,17471 -68,-129 105,-50 c 105,-50 454,-233 535,-280 l 44,-25 -49,-25 c -106,-54 -225,-213 -287,-386 -39,-105 -48,-266 -22,-366 94,-367 487,-671 867,-670 243,1 430,108 546,313 90,158 126,319 101,451 -8,42 -13,78 -11,80 2,2 33,-9 68,-26 36,-17 66,-29 68,-27 2,2 26,50 54,105 l 51,101 -112,53 c -390,184 -1253,658 -1656,909 -89,56 -163,101 -164,101 -1,0 -32,-58 -70,-129 z m 1204,-787 c 288,-150 401,-213 411,-228 4,-6 10,-35 14,-65 16,-126 -59,-329 -162,-440 -90,-98 -200,-137 -359,-129 -169,9 -338,92 -480,233 -133,133 -188,272 -165,418 25,166 144,342 271,405 l 40,20 94,-43 c 51,-24 203,-101 336,-171 z"
       id="path87"
       style="fill:#800000;stroke-width:18.9234" />
    <path
       d="m 5970,16919 c -100,-82 -323,-233 -465,-314 -55,-32 -237,-128 -405,-213 -168,-85 -306,-156 -308,-157 -4,-3 128,-245 133,-245 1,0 80,44 176,99 648,368 823,462 848,456 110,-27 273,-172 333,-295 113,-230 57,-369 -210,-519 -136,-78 -447,-237 -612,-315 -91,-43 -167,-80 -169,-82 -4,-4 129,-244 135,-244 3,0 67,35 142,79 282,161 530,300 638,355 218,111 312,188 364,298 26,54 30,75 30,147 0,270 -173,522 -440,638 -41,18 -76,36 -78,41 -1,5 29,33 68,62 38,30 70,57 70,60 0,7 -159,220 -163,219 -1,0 -40,-32 -87,-70 z"
       id="path89"
       style="fill:#800000;stroke-width:18.9234" />
    <path
       d="m 34238,15619 c -138,-18 -311,-103 -399,-196 -88,-92 -148,-191 -189,-313 -34,-99 -39,-287 -11,-402 35,-147 114,-281 232,-394 214,-203 453,-301 672,-273 434,54 719,488 610,929 -44,181 -168,349 -353,479 -195,137 -382,193 -562,170 z m 112,-273 c 384,-70 693,-432 615,-721 -34,-126 -142,-253 -253,-296 -73,-29 -224,-31 -322,-6 -94,25 -238,99 -323,166 -173,137 -280,360 -249,516 17,85 61,164 127,230 110,112 226,143 405,111 z"
       id="path91"
       style="fill:#800000;stroke-width:18.9234" />
    <path
       d="m 7505,15072 c -137,-103 -342,-252 -455,-332 -217,-154 -840,-572 -909,-611 -23,-12 -41,-25 -41,-29 0,-12 161,-235 169,-233 4,1 97,69 207,151 407,304 896,646 1264,884 102,66 187,122 188,123 5,5 -158,235 -166,235 -4,0 -119,-85 -257,-188 z"
       id="path93"
       style="fill:#800000;stroke-width:18.9234" />
    <path
       d="m 32709,14704 c -50,-58 -88,-109 -83,-114 5,-4 99,-81 209,-171 407,-331 795,-668 866,-751 65,-76 105,-138 130,-199 29,-70 31,-183 6,-256 -41,-119 -178,-282 -275,-328 -23,-11 -42,-22 -42,-25 0,-3 36,-41 79,-84 l 80,-79 68,56 c 156,127 286,318 328,482 32,125 9,272 -65,415 -70,134 -174,245 -487,521 -288,255 -627,563 -672,613 -14,14 -30,26 -37,26 -7,0 -54,-48 -105,-106 z"
       id="path95"
       style="fill:#800000;stroke-width:18.9234" />
    <path
       d="m 7583,14352 c -202,-246 -477,-495 -986,-889 l -29,-22 93,-105 c 52,-60 97,-102 103,-99 6,4 70,59 141,123 141,126 680,597 707,618 13,11 28,10 83,-3 133,-31 261,-112 340,-217 63,-83 86,-138 93,-215 4,-57 1,-70 -28,-130 -41,-82 -115,-158 -333,-340 -139,-116 -406,-327 -491,-389 l -30,-21 93,-107 93,-106 70,62 c 294,262 473,418 594,519 168,140 234,211 277,299 29,58 32,73 32,155 0,74 -5,101 -27,153 -43,104 -89,171 -173,257 -63,63 -98,90 -165,123 -81,40 -216,82 -266,82 -13,0 -25,3 -27,8 -3,4 21,38 54,76 32,39 59,73 59,77 0,7 -194,179 -201,179 -2,0 -36,-40 -76,-88 z"
       id="path97"
       style="fill:#800000;stroke-width:18.9234" />
    <path
       d="m 31985,13060 -98,-98 30,-39 c 47,-59 127,-201 215,-383 198,-408 270,-550 312,-615 24,-38 43,-71 41,-73 -2,-2 -30,14 -62,36 -99,66 -288,166 -604,318 -167,80 -341,166 -387,190 l -82,45 -115,-107 c -64,-59 -112,-111 -108,-115 5,-4 204,-88 443,-187 599,-248 759,-321 907,-414 245,-155 304,-468 128,-678 l -38,-45 79,-73 79,-73 63,67 c 40,43 77,96 103,149 87,175 65,274 -153,685 -107,204 -200,420 -358,840 -163,431 -255,643 -288,664 -5,3 -53,-39 -107,-94 z"
       id="path99"
       style="fill:#800000;stroke-width:18.9234" />
    <path
       d="m 8680,13044 c -74,-20 -136,-57 -192,-116 -67,-70 -92,-139 -92,-253 0,-108 16,-172 96,-395 91,-250 98,-325 36,-396 -86,-98 -197,-84 -337,42 -102,93 -248,296 -282,392 -6,17 -15,32 -20,32 -6,0 -184,-103 -196,-114 -4,-4 134,-206 175,-256 58,-72 213,-229 263,-266 70,-51 159,-92 232,-105 117,-22 235,21 346,125 65,62 97,123 113,214 14,84 -4,193 -57,342 -18,52 -50,141 -70,197 -60,169 -59,246 2,314 69,77 158,70 269,-20 81,-66 192,-205 246,-308 24,-46 47,-83 52,-83 6,0 166,92 185,106 6,5 -50,96 -108,174 -31,41 -105,125 -166,185 -83,84 -127,120 -180,147 -113,58 -208,71 -315,42 z"
       id="path101"
       style="fill:#800000;stroke-width:18.9234" />
    <path
       d="m 9896,12370 -157,-158 -95,90 -95,91 -75,-74 c -40,-40 -74,-78 -73,-84 0,-5 31,-35 70,-65 38,-30 80,-66 93,-80 l 24,-25 -170,-185 c -323,-353 -394,-441 -457,-562 -55,-106 -67,-174 -47,-255 19,-79 54,-139 124,-214 55,-59 162,-137 224,-163 l 34,-15 74,67 73,67 -79,51 c -130,82 -202,190 -191,285 14,116 117,253 533,702 l 62,68 165,-155 164,-154 81,81 82,82 -148,122 c -81,67 -158,133 -172,148 l -25,27 167,163 166,162 -85,64 c -48,35 -92,67 -98,71 -8,5 -71,-52 -169,-152 z"
       id="path103"
       style="fill:#800000;stroke-width:18.9234" />
    <path
       d="m 30932,12343 c -93,-55 -157,-127 -171,-191 -12,-59 -2,-128 28,-198 11,-24 17,-45 13,-47 -4,-3 -25,-8 -47,-12 -141,-25 -367,-178 -479,-323 -180,-235 -165,-511 39,-718 91,-92 148,-116 290,-121 97,-3 100,-4 97,-25 -10,-87 -4,-176 15,-219 46,-103 138,-172 231,-173 28,0 52,-3 52,-7 0,-4 -12,-28 -27,-55 -26,-45 -28,-58 -28,-154 0,-100 2,-108 35,-174 117,-234 350,-322 597,-226 163,62 399,246 512,398 65,88 115,195 142,302 17,68 20,103 16,185 -6,118 -29,190 -88,282 -111,170 -262,224 -447,160 -97,-34 -180,-85 -337,-207 -218,-171 -349,-250 -412,-250 -73,0 -143,78 -143,159 0,37 4,44 31,59 165,89 339,249 401,368 54,102 72,181 65,279 -13,187 -127,363 -280,436 -34,16 -69,29 -77,29 -23,0 -40,20 -40,47 0,43 41,105 117,179 l 75,73 -57,91 c -31,49 -58,90 -59,90 -1,0 -30,-17 -64,-37 z m -24,-694 c 69,-34 138,-104 174,-177 19,-38 23,-63 23,-132 0,-78 -3,-90 -34,-148 -43,-80 -131,-161 -219,-203 -52,-25 -84,-34 -145,-37 -71,-4 -82,-2 -142,27 -120,59 -208,188 -209,306 -1,114 56,217 165,303 127,98 269,120 387,61 z m 1012,-884 c 37,-19 99,-85 121,-128 88,-170 -8,-404 -241,-588 -163,-129 -299,-181 -414,-160 -73,13 -108,33 -174,95 -96,89 -125,196 -87,322 13,46 21,55 99,107 46,32 144,104 217,162 252,196 374,244 479,190 z"
       id="path105"
       style="fill:#800000;stroke-width:18.9234" />
    <path
       d="m 10809,12094 c -82,-25 -151,-128 -134,-203 25,-115 164,-178 272,-122 78,39 120,131 99,215 -10,40 -74,95 -129,111 -59,17 -49,17 -108,-1 z"
       id="path107"
       style="fill:#800000;stroke-width:18.9234" />
    <path
       d="m 10343,11547 c -130,-221 -396,-577 -669,-894 -60,-69 -115,-133 -122,-143 -11,-14 1,-26 93,-98 58,-45 109,-82 113,-82 4,0 34,39 67,87 159,231 518,694 752,970 l 112,132 -129,75 c -71,42 -133,76 -137,76 -4,-1 -40,-56 -80,-123 z"
       id="path109"
       style="fill:#800000;stroke-width:18.9234" />
    <path
       d="m 11243,11393 c -60,-76 -122,-155 -137,-175 l -28,-38 -105,81 c -58,45 -109,77 -113,73 -24,-26 -131,-166 -128,-168 2,-2 46,-31 98,-66 52,-34 99,-66 103,-70 5,-4 -80,-128 -189,-276 -218,-296 -265,-366 -317,-469 -119,-238 -84,-393 128,-560 60,-48 173,-106 227,-117 10,-2 40,24 81,72 l 65,74 -78,37 c -123,58 -209,150 -225,242 -10,54 26,158 94,269 56,93 407,578 418,578 3,0 75,-53 160,-117 85,-65 165,-126 177,-135 23,-17 23,-17 94,72 l 72,89 -180,122 c -99,67 -182,125 -185,129 -6,9 60,96 188,249 53,63 94,118 91,122 -3,6 -170,106 -195,117 -4,2 -56,-59 -116,-135 z"
       id="path111"
       style="fill:#800000;stroke-width:18.9234" />
    <path
       d="m 29380,10964 c -172,-46 -347,-174 -442,-325 -108,-169 -145,-391 -98,-589 59,-248 263,-521 463,-618 276,-136 585,-77 817,157 71,71 94,103 132,181 57,116 77,187 85,305 15,234 -94,489 -297,695 -79,81 -109,104 -180,138 -47,23 -112,49 -145,57 -76,19 -261,19 -335,-1 z m 221,-238 c 134,-47 279,-163 368,-294 95,-141 135,-265 135,-417 0,-137 -24,-197 -113,-286 -147,-147 -309,-174 -498,-85 -127,60 -226,148 -312,275 -90,133 -132,261 -132,410 0,136 30,210 124,298 124,117 277,153 428,99 z"
       id="path113"
       style="fill:#800000;stroke-width:18.9234" />
    <path
       d="m 27850,10844 c -69,-41 -124,-78 -123,-82 1,-4 43,-73 94,-152 203,-318 489,-843 772,-1420 94,-190 172,-347 174,-350 5,-5 251,120 258,130 2,3 -17,39 -42,80 -260,426 -786,1415 -954,1792 -19,43 -38,77 -44,77 -5,0 -66,-34 -135,-75 z"
       id="path115"
       style="fill:#800000;stroke-width:18.9234" />
    <path
       d="m 11693,10522 c -51,-104 -152,-287 -225,-408 -202,-337 -253,-458 -253,-604 0,-72 4,-93 27,-140 62,-127 239,-257 433,-320 57,-19 97,-24 210,-26 77,-2 141,-3 142,-4 1,0 -9,-27 -23,-60 -13,-33 -24,-63 -24,-68 0,-4 48,-33 106,-62 73,-38 108,-51 111,-43 21,56 220,443 302,585 85,150 340,579 398,670 9,15 15,29 13,31 -24,20 -245,128 -247,121 -9,-26 -187,-349 -364,-660 l -200,-352 -39,-6 c -47,-7 -160,8 -227,30 -72,24 -195,90 -241,129 -53,46 -92,125 -92,188 0,128 172,479 436,892 50,77 93,145 97,151 4,7 -41,36 -119,78 -69,36 -126,66 -127,66 -1,-1 -44,-85 -94,-188 z"
       id="path117"
       style="fill:#800000;stroke-width:18.9234" />
    <path
       d="m 13365,10055 c -52,-107 -97,-195 -99,-195 -4,0 -193,89 -228,108 -4,2 -30,-42 -57,-97 l -50,-99 120,-48 c 66,-27 118,-52 115,-58 -2,-6 -63,-139 -134,-296 -204,-451 -233,-537 -236,-690 -1,-82 2,-102 23,-145 14,-27 48,-73 77,-101 89,-88 284,-173 394,-174 33,0 37,4 81,83 30,53 43,84 35,88 -6,3 -38,12 -71,19 -33,7 -85,25 -116,41 -122,61 -164,122 -162,234 2,98 35,195 173,505 149,336 151,340 166,340 7,0 98,-40 203,-90 104,-49 192,-90 195,-90 11,0 105,199 97,204 -5,3 -49,21 -97,40 -49,18 -140,55 -202,81 l -113,47 106,205 c 58,112 105,207 105,211 0,7 -206,73 -223,72 -5,0 -51,-88 -102,-195 z"
       id="path119"
       style="fill:#800000;stroke-width:18.9234" />
    <path
       d="m 27280,9804 c -95,-28 -189,-76 -269,-137 -160,-123 -281,-374 -281,-582 0,-313 194,-676 425,-797 183,-95 383,-109 577,-38 228,83 385,249 469,495 21,61 24,88 24,215 0,172 -17,244 -95,409 -149,310 -367,462 -664,460 -77,0 -121,-6 -186,-25 z m 245,-213 c 278,-98 498,-479 456,-791 -14,-102 -45,-174 -105,-238 -73,-78 -215,-142 -316,-142 -196,0 -434,203 -531,454 -36,94 -59,205 -59,284 0,69 23,178 46,224 89,177 325,273 509,209 z"
       id="path121"
       style="fill:#800000;stroke-width:18.9234" />
    <path
       d="m 14463,9368 c -247,-25 -499,-236 -626,-525 -46,-104 -68,-206 -68,-323 0,-306 157,-538 461,-685 136,-65 417,-145 510,-145 13,0 34,30 69,95 28,53 51,97 51,99 0,2 -28,7 -62,10 -85,10 -267,58 -364,96 -194,77 -310,188 -374,355 -42,112 -36,375 8,362 10,-2 235,-84 501,-181 266,-97 487,-176 491,-176 10,0 73,147 100,235 61,198 24,419 -95,557 -131,154 -382,248 -602,226 z m 176,-203 c 137,-33 252,-124 287,-227 30,-92 -4,-339 -46,-330 -20,4 -744,263 -749,268 -9,8 91,143 138,187 109,102 229,135 370,102 z"
       id="path123"
       style="fill:#800000;stroke-width:18.9234" />
    <path
       d="m 23435,9228 c -71,-23 -132,-42 -133,-44 -2,-1 26,-92 62,-201 35,-109 86,-271 111,-361 76,-271 295,-1162 360,-1467 10,-44 21,-84 25,-88 6,-7 248,47 258,57 1,2 -13,59 -32,127 -19,68 -85,317 -145,553 -79,307 -108,433 -101,446 5,10 44,49 85,88 161,150 394,219 538,158 80,-33 138,-110 181,-237 42,-127 141,-566 191,-851 12,-70 21,-98 31,-98 8,0 70,14 138,31 l 124,31 -13,47 c -33,112 -177,679 -205,806 -40,185 -73,281 -119,352 -78,120 -171,172 -326,180 -239,13 -480,-97 -629,-287 -35,-44 -51,-58 -56,-49 -12,22 -200,816 -200,843 0,9 -2,8 -145,-36 z"
       id="path125"
       style="fill:#800000;stroke-width:18.9234" />
    <path
       d="m 25900,9195 c -216,-48 -378,-160 -485,-334 -21,-34 -42,-61 -46,-61 -5,0 -27,36 -49,80 -22,44 -45,80 -50,80 -12,0 -209,-97 -226,-111 -9,-7 12,-56 72,-173 136,-265 228,-513 369,-1001 32,-110 61,-203 65,-207 5,-6 180,47 251,76 14,6 5,36 -56,209 -40,111 -125,354 -190,539 -138,395 -137,357 -10,484 93,94 184,145 305,170 170,35 288,-23 368,-183 37,-73 194,-550 258,-785 29,-109 53,-178 60,-178 11,0 243,79 252,85 1,1 -48,143 -109,316 -61,173 -142,407 -179,522 -38,114 -81,231 -97,260 -42,78 -147,180 -208,201 -69,24 -214,29 -295,11 z"
       id="path127"
       style="fill:#800000;stroke-width:18.9234" />
    <path
       d="m 18293,9092 c -176,-63 -282,-238 -348,-574 -13,-66 -25,-122 -28,-124 -2,-2 -67,7 -143,21 -76,14 -145,27 -153,28 -11,1 -20,-26 -37,-108 -12,-60 -21,-110 -21,-111 1,-1 74,-9 162,-18 88,-10 162,-20 164,-22 9,-8 -145,-1006 -185,-1200 l -6,-31 119,-16 c 174,-25 159,-30 167,61 16,192 139,1138 149,1149 4,3 96,-9 207,-27 110,-18 203,-31 205,-28 7,7 44,212 40,217 -2,2 -71,10 -152,17 -81,8 -175,18 -208,22 l -60,7 3,50 c 5,69 49,277 74,342 23,62 67,117 111,140 40,20 180,13 257,-15 l 55,-19 36,96 c 26,69 33,98 25,103 -40,24 -173,50 -271,54 -90,4 -119,1 -162,-14 z"
       id="path129"
       style="fill:#800000;stroke-width:18.9234" />
    <path
       d="m 19210,8693 c 0,-49 -3,-98 -6,-111 l -7,-23 326,7 326,7 7,-28 c 8,-32 -12,-1170 -26,-1460 -5,-104 -10,-226 -12,-270 l -3,-80 141,-3 141,-3 6,868 c 4,478 10,890 13,917 l 7,49 191,-7 c 105,-3 248,-9 317,-13 l 126,-6 6,104 c 3,57 4,106 2,108 -4,3 -1263,29 -1487,31 h -68 z"
       id="path131"
       style="fill:#800000;stroke-width:18.9234" />
    <path
       d="m 16525,8696 c -151,-35 -272,-101 -381,-210 -89,-90 -135,-160 -187,-292 -83,-207 -99,-444 -43,-608 73,-213 245,-375 471,-442 75,-22 110,-27 210,-27 140,-1 209,15 330,73 164,79 277,193 361,365 111,229 137,539 61,720 -62,149 -189,286 -328,354 -46,22 -111,48 -144,57 -82,22 -273,27 -350,10 z m 274,-195 c 150,-47 238,-140 285,-303 73,-250 5,-556 -165,-741 -112,-123 -227,-170 -363,-150 -209,31 -333,151 -382,369 -22,101 -15,287 15,392 21,72 70,178 110,236 34,50 124,137 169,163 94,56 220,69 331,34 z"
       id="path133"
       style="fill:#800000;stroke-width:18.9234" />
    <path
       d="m 22968,8465 c -340,-53 -578,-259 -670,-582 -31,-108 -31,-321 0,-434 71,-262 268,-463 519,-531 102,-27 328,-29 447,-3 95,20 196,57 237,85 28,20 29,25 29,94 0,41 -3,87 -6,104 l -6,31 -37,-15 c -284,-123 -524,-123 -705,1 -111,75 -198,207 -232,351 -20,85 -22,231 -5,304 44,184 175,318 351,360 64,16 237,19 328,7 l 62,-9 v 120 c 0,100 -3,121 -16,126 -27,10 -205,5 -296,-9 z"
       id="path135"
       style="fill:#800000;stroke-width:18.9234" />
    <path
       d="m 21315,8289 c -234,-36 -412,-178 -522,-416 -93,-203 -108,-466 -38,-674 77,-224 253,-391 487,-460 101,-30 386,-38 536,-15 99,15 195,39 219,54 9,6 37,210 29,219 0,1 -45,-9 -98,-22 -188,-46 -401,-58 -531,-30 -138,29 -265,119 -347,246 -39,61 -76,162 -82,224 -3,28 0,30 32,32 73,6 988,53 1015,53 h 28 l -6,140 c -3,76 -13,170 -22,207 -37,151 -131,290 -245,363 -106,68 -305,103 -455,79 z m 259,-222 c 118,-54 178,-158 200,-343 l 6,-52 -77,-6 c -43,-3 -206,-13 -363,-21 -157,-8 -304,-17 -327,-19 -41,-3 -43,-2 -43,24 0,48 39,180 71,241 54,100 154,174 271,199 73,16 202,4 262,-23 z"
       id="path137"
       style="fill:#800000;stroke-width:18.9234" />
    <path
       d="m 16375,4083 c -30,-8 -55,-33 -55,-57 1,-46 56,-131 234,-361 53,-68 162,-99 269,-76 23,5 86,15 140,22 126,15 183,3 282,-62 82,-53 104,-77 343,-379 145,-184 186,-230 225,-250 37,-20 51,-23 64,-14 28,18 27,70 -2,130 -23,47 -356,457 -503,619 -207,228 -457,376 -711,420 -79,14 -242,18 -286,8 z"
       id="path139"
       style="fill:#800000;stroke-width:18.9234" />
    <path
       d="m 30164,4076 c -44,-20 -48,-40 -21,-100 22,-46 177,-267 228,-323 55,-60 161,-86 262,-64 23,5 87,15 142,22 89,10 108,10 160,-5 59,-18 133,-61 193,-112 18,-16 122,-141 230,-278 108,-137 213,-262 232,-277 104,-82 153,-16 83,112 -38,71 -432,539 -562,669 -244,243 -488,357 -786,366 -98,4 -138,1 -161,-10 z"
       id="path141"
       style="fill:#800000;stroke-width:18.9234" />
    <path
       d="m 20120,3915 c -107,-24 -204,-78 -284,-159 -186,-185 -206,-400 -59,-617 77,-113 116,-151 150,-147 41,4 55,43 64,177 4,64 13,134 19,156 36,122 140,244 247,286 49,20 76,24 173,23 160,0 272,-32 437,-125 65,-37 115,-82 318,-286 153,-154 249,-243 261,-243 52,0 58,60 14,137 -41,72 -465,512 -564,585 -148,110 -271,172 -403,202 -103,23 -294,29 -373,11 z"
       id="path143"
       style="fill:#800000;stroke-width:18.9234" />
    <path
       d="m 34743,3919 c -210,-35 -397,-200 -448,-394 -36,-138 -9,-253 94,-403 72,-105 104,-134 140,-130 38,4 53,46 62,177 4,64 13,134 19,156 36,122 140,244 247,286 49,20 76,24 173,23 160,0 272,-32 437,-125 65,-37 115,-82 318,-286 153,-154 249,-243 261,-243 52,0 58,60 14,137 -39,67 -462,509 -555,579 -178,134 -343,206 -517,224 -108,11 -173,11 -245,-1 z"
       id="path145"
       style="fill:#800000;stroke-width:18.9234" />
    <path
       d="m 6721,3532 c -20,-21 -67,-80 -104,-132 -94,-132 -93,-135 28,-275 53,-61 109,-121 126,-134 27,-21 33,-22 60,-11 51,22 239,245 239,285 0,31 -56,100 -173,213 -62,59 -104,92 -118,92 -13,0 -38,-16 -58,-38 z"
       id="path147"
       style="fill:#800000;stroke-width:18.9234" />
    <path
       d="m 3960,2675 v -135 h 1280 1280 v -306 c 0,-268 -2,-305 -15,-300 -8,3 -75,44 -148,91 -208,132 -201,130 -402,129 -93,0 -194,-6 -223,-12 -132,-30 -240,-110 -287,-214 -24,-52 -30,-80 -33,-161 -4,-84 -1,-108 21,-180 58,-183 234,-399 397,-486 72,-38 158,-61 233,-61 107,0 313,54 375,99 17,11 44,21 61,21 h 31 v -159 c 0,-179 13,-243 70,-330 37,-58 167,-185 198,-193 48,-13 47,-31 42,861 -3,460 -5,917 -5,1016 v 180 l 163,3 162,2 v 135 135 H 5560 3960 Z m 2410,-785 c 25,-6 69,-18 98,-26 l 52,-15 v -144 -143 l -32,-24 c -59,-44 -155,-98 -230,-129 -93,-39 -306,-89 -379,-89 -171,0 -250,88 -215,240 44,195 159,303 361,340 61,11 283,4 345,-10 z"
       id="path149"
       style="fill:#800000;stroke-width:18.9234" />
    <path
       d="m 8320,2675 v -135 h 855 855 v -149 -150 l -53,-19 c -158,-60 -231,-66 -568,-47 -360,20 -448,20 -584,1 -258,-38 -364,-89 -409,-198 -20,-48 -21,-159 -1,-226 45,-150 300,-389 472,-442 97,-30 157,-26 265,16 158,62 242,55 274,-21 57,-137 -60,-312 -241,-360 -95,-24 -105,-22 -191,51 -116,97 -182,128 -269,129 -60,0 -78,-4 -125,-31 -74,-42 -112,-112 -112,-207 0,-103 41,-179 133,-249 81,-61 160,-81 323,-83 l 139,-2 79,-99 c 43,-54 120,-160 171,-234 l 92,-135 79,-40 c 95,-48 175,-55 222,-19 70,51 49,115 -63,200 -164,123 -286,247 -363,370 l -20,31 83,41 c 152,77 235,158 277,269 29,77 29,195 1,276 -60,173 -273,345 -466,378 -64,11 -82,9 -203,-15 -72,-14 -151,-26 -173,-26 -109,0 -166,81 -133,191 20,66 73,123 129,137 22,6 243,13 490,16 458,5 570,13 674,45 l 59,18 7,-606 c 8,-639 8,-646 56,-712 33,-47 190,-162 203,-149 8,8 12,323 14,1031 l 2,1019 283,-2 282,-3 5,-900 c 4,-804 7,-902 21,-923 25,-35 271,-232 282,-225 6,3 7,373 2,1029 l -8,1024 824,-2 824,-3 3,-312 2,-313 h -507 c -547,0 -581,-3 -681,-54 -156,-80 -195,-263 -97,-462 29,-59 55,-91 149,-182 140,-134 182,-157 286,-157 41,0 87,4 102,8 61,16 74,115 37,285 -12,53 -26,105 -31,116 -16,30 18,93 67,122 42,24 42,24 338,24 h 297 v -400 c 0,-338 2,-406 15,-437 21,-50 267,-296 291,-291 47,9 46,-9 39,1056 l -6,1002 h 311 310 v -388 -389 l -25,-11 c -14,-7 -61,-12 -103,-12 -127,0 -186,-45 -186,-143 0,-75 32,-133 138,-245 50,-54 120,-130 155,-170 67,-76 147,-132 192,-132 43,0 125,29 145,51 18,20 22,62 24,262 0,9 9,26 20,37 19,19 33,20 380,20 h 360 v -310 c 0,-248 3,-318 14,-345 21,-49 95,-125 203,-207 74,-56 96,-69 106,-59 9,9 11,238 8,1027 l -4,1014 h 421 421 l 19,-25 c 52,-66 55,-237 5,-334 -53,-104 -152,-149 -348,-157 -151,-6 -163,-9 -177,-39 -16,-36 29,-123 173,-332 202,-295 292,-389 450,-468 98,-50 178,-68 299,-67 128,0 209,19 307,73 68,37 100,42 105,15 1,-6 2,-99 2,-206 1,-162 4,-200 18,-225 27,-50 285,-297 305,-293 17,3 18,56 21,1031 l 2,1027 h 265 265 v -880 c 0,-786 2,-884 16,-920 12,-30 43,-62 123,-128 169,-140 164,-137 172,-114 4,10 4,471 -1,1023 -4,552 -5,1007 -3,1012 2,4 67,7 144,7 h 139 v 135 135 H 13315 8320 Z m 6520,-540 v -405 h -390 -390 v 405 405 h 390 390 z m 2029,243 c 0,-90 -4,-260 -8,-378 -7,-202 -9,-218 -33,-270 -63,-136 -223,-249 -422,-300 -160,-41 -313,-15 -448,74 -72,47 -108,95 -108,142 0,47 27,70 97,84 148,29 236,75 289,152 26,37 29,49 27,117 -1,42 -17,157 -36,256 -40,203 -49,270 -40,279 3,3 159,6 345,6 h 338 z"
       id="path151"
       style="fill:#800000;stroke-width:18.9234" />
    <path
       d="m 19470,2675 v -134 l 133,-3 132,-3 5,-935 c 6,-1077 -9,-949 123,-1050 83,-63 120,-79 146,-63 15,9 16,105 13,1032 l -3,1021 h 730 731 v -305 c 0,-168 -2,-305 -6,-305 -3,0 -72,43 -155,96 -202,130 -228,138 -434,130 -215,-7 -318,-39 -405,-126 -145,-145 -144,-384 2,-616 141,-225 326,-359 513,-371 117,-8 348,47 414,98 13,11 37,19 52,19 h 29 v -143 c 0,-148 11,-217 50,-305 21,-48 167,-204 212,-228 24,-12 29,-12 44,3 15,16 16,89 9,1035 l -8,1018 1019,-2 1019,-3 3,-141 c 2,-106 -1,-144 -10,-152 -27,-22 -167,-61 -253,-72 -70,-8 -166,-6 -424,8 -279,15 -352,16 -445,6 -293,-32 -412,-78 -473,-181 -23,-39 -27,-59 -27,-117 -1,-117 17,-166 100,-276 150,-199 366,-330 522,-318 31,3 101,21 154,41 122,46 175,49 218,10 58,-52 60,-156 5,-250 -46,-78 -161,-146 -267,-159 l -56,-7 -89,73 c -115,96 -177,125 -263,125 -94,-1 -164,-40 -205,-115 -25,-46 -30,-66 -30,-125 0,-210 201,-347 489,-332 113,6 91,19 201,-119 36,-45 104,-140 152,-210 97,-141 129,-170 232,-204 112,-37 201,-5 201,72 0,47 -15,65 -148,171 -65,52 -145,124 -179,160 -57,62 -153,187 -153,201 0,3 24,17 54,30 254,112 371,312 311,532 -52,193 -284,383 -497,409 -38,4 -92,-1 -187,-19 -73,-15 -153,-26 -176,-26 -93,0 -152,82 -127,177 18,67 53,117 99,139 35,17 76,19 503,25 451,7 570,15 675,43 28,7 57,15 65,17 13,4 16,-70 21,-601 6,-596 6,-606 28,-655 12,-27 32,-61 44,-74 33,-36 179,-143 186,-136 3,4 8,466 11,1028 l 5,1022 283,3 282,2 v -880 c 0,-775 2,-884 16,-919 15,-38 48,-69 228,-215 56,-45 60,-47 67,-28 4,11 4,472 0,1024 -4,552 -6,1006 -4,1011 2,4 373,7 824,7 h 819 v -315 -314 l -532,-3 c -515,-3 -535,-4 -589,-25 -149,-56 -209,-139 -209,-289 0,-82 31,-178 81,-252 44,-67 220,-232 284,-265 31,-17 57,-22 120,-22 134,0 153,14 162,114 4,50 -11,138 -54,316 -6,27 34,84 77,106 32,17 62,19 334,19 h 299 l -6,-390 c -4,-276 -2,-400 6,-426 20,-67 261,-314 306,-314 6,0 19,16 27,36 13,31 14,159 8,1030 l -7,994 309,-2 309,-3 3,-380 c 3,-449 13,-415 -121,-415 -100,0 -157,-24 -181,-74 -39,-84 -5,-176 111,-300 43,-45 117,-125 165,-178 103,-113 154,-144 225,-134 57,8 110,33 126,60 7,13 12,66 12,143 1,179 -39,163 402,163 h 363 v -315 c 0,-355 -1,-351 78,-432 55,-56 222,-185 236,-180 6,2 13,18 17,36 4,18 3,474 -1,1014 -4,540 -5,985 -1,990 4,4 196,6 427,5 l 419,-3 25,-50 c 34,-70 35,-205 0,-283 -52,-119 -158,-171 -370,-179 -184,-7 -202,-28 -135,-151 55,-99 261,-395 335,-480 162,-189 335,-275 550,-275 144,0 223,21 353,94 36,20 40,21 55,5 14,-14 16,-39 13,-194 -2,-112 2,-194 9,-220 8,-32 34,-67 108,-144 104,-108 185,-178 208,-178 12,0 14,153 16,1028 l 3,1027 267,3 268,2 2,-899 c 3,-895 3,-900 24,-928 30,-40 266,-233 278,-226 6,4 7,387 2,1030 l -6,1023 h 145 145 v 135 135 h -6325 -6325 z m 9178,-542 2,-403 h -390 -390 v 405 405 l 388,-2 387,-3 z m 2024,67 c -3,-353 -10,-416 -48,-492 -95,-187 -439,-337 -663,-289 -132,28 -280,126 -300,198 -20,71 13,101 133,122 112,20 224,90 263,165 22,42 12,181 -27,364 -16,79 -33,172 -36,208 l -7,64 344,-2 344,-3 z m -9402,-300 c 36,-6 100,-20 143,-32 l 77,-20 v -143 -142 l -67,-45 c -140,-93 -259,-142 -440,-178 -280,-57 -406,32 -349,245 57,213 219,321 486,324 47,0 114,-4 150,-9 z"
       id="path153"
       style="fill:#800000;stroke-width:18.9234" />
    <path
       d="m 34070,2675 v -134 l 133,-3 132,-3 5,-935 c 6,-1077 -9,-949 123,-1050 83,-63 120,-79 146,-63 15,9 16,105 13,1032 l -3,1021 h 385 386 v -236 -235 l -27,-56 c -30,-60 -64,-93 -97,-93 -12,0 -68,18 -125,40 -56,22 -114,40 -127,40 -73,0 -114,-64 -114,-178 0,-94 21,-169 85,-297 67,-133 120,-208 359,-503 181,-223 397,-449 486,-508 56,-37 116,-49 147,-29 20,14 23,21 17,48 -11,51 -52,125 -97,174 -23,25 -102,90 -174,145 -213,160 -324,299 -308,385 3,21 51,121 105,223 54,102 101,195 105,208 7,23 16,24 101,7 11,-3 56,-37 100,-76 95,-86 132,-104 244,-118 191,-24 279,-24 380,-2 52,12 95,21 97,21 2,0 3,-143 3,-317 0,-455 10,-485 198,-635 88,-70 118,-75 128,-22 6,31 4,448 -8,1739 l -3,270 148,3 147,3 v 134 135 h -1545 -1545 z m 2478,-477 -3,-343 -41,-22 c -23,-13 -77,-33 -120,-45 -72,-20 -103,-22 -354,-22 -260,-1 -277,0 -310,20 l -35,20 -3,367 -2,367 h 435 435 z"
       id="path155"
       style="fill:#800000;stroke-width:18.9234" />
    <path
       d="M 1310,1789 V 775 l 155,-155 155,-155 v 1026 1026 l -107,99 c -60,54 -129,119 -155,143 l -48,44 z"
       id="path157"
       style="fill:#800000;stroke-width:18.9234" />
    <path
       d="m 32768,2784 c -109,-26 -181,-81 -229,-174 -29,-57 -31,-169 -5,-248 24,-71 104,-189 169,-249 29,-26 176,-142 325,-256 318,-244 322,-249 330,-397 5,-105 -7,-154 -53,-208 -50,-58 -163,-113 -247,-119 -100,-8 -177,16 -388,122 -104,52 -201,95 -214,95 -13,0 -30,-7 -37,-16 -16,-20 -16,-93 0,-123 6,-11 75,-75 154,-141 226,-192 387,-261 617,-263 99,-1 125,3 186,25 294,105 411,382 278,658 -49,103 -114,166 -421,402 -149,115 -284,225 -298,244 -43,56 -58,104 -59,179 -1,97 33,156 107,191 52,24 55,24 380,24 h 327 v 135 135 l -432,-1 c -333,0 -446,-4 -490,-15 z"
       id="path159"
       style="fill:#800000;stroke-width:18.9234" />
    <path
       d="M 39300,1789 V 775 l 155,-155 155,-155 v 1026 1026 l -102,94 c -57,52 -127,116 -155,143 l -53,49 z"
       id="path161"
       style="fill:#800000;stroke-width:18.9234" />
    <path
       d="M 2110,1782 V 775 l 150,-150 150,-150 v 1025 l -1,1025 -144,133 c -79,72 -146,132 -149,132 -3,0 -6,-453 -6,-1008 z"
       id="path163"
       style="fill:#800000;stroke-width:18.9234" />
    <path
       d="M 38510,1784 V 775 l 150,-155 149,-155 v 1026 l 1,1027 -127,118 c -71,65 -138,127 -150,138 l -23,19 z"
       id="path165"
       style="fill:#800000;stroke-width:18.9234" />
    <path
       d="m 4600,2019 c -132,-8 -166,-17 -271,-69 -128,-65 -215,-179 -240,-316 -20,-107 9,-273 70,-409 46,-102 328,-482 429,-577 111,-104 214,-168 272,-168 37,0 44,12 35,67 -8,57 -52,106 -246,274 -75,65 -150,136 -168,157 -52,66 -90,159 -98,242 -23,221 45,373 204,458 106,56 152,62 457,62 h 276 v 138 139 l -187,6 c -216,8 -369,7 -533,-4 z"
       id="path167"
       style="fill:#800000;stroke-width:18.9234" />
  </g>
</svg>
